<?xml version="1.0" standalone="no"?>
<!DOCTYPE svg PUBLIC "-//W3C//DTD SVG 20010904//EN"
 "http://www.w3.org/TR/2001/REC-SVG-20010904/DTD/svg10.dtd">
<svg version="1.0" xmlns="http://www.w3.org/2000/svg"
 width="132.000000pt" height="132.000000pt" viewBox="0 0 132.000000 132.000000"
 preserveAspectRatio="xMidYMid meet">
<metadata>
Created by potrace 1.14, written by Peter Selinger 2001-2017
</metadata>
<g transform="translate(0.000000,132.000000) scale(0.100000,-0.100000)"
fill="#000000" stroke="none">
<path d="M587 1008 c-61 -11 -145 -49 -176 -78 -31 -30 -50 -79 -44 -112 4
-21 13 -28 46 -37 41 -10 247 -8 297 3 65 15 85 17 70 7 -21 -13 -161 -33
-240 -35 -36 -1 -87 4 -113 11 -36 9 -54 9 -72 1 -32 -14 -32 -28 -1 -28 28 0
45 -39 18 -41 -11 0 -13 -2 -4 -6 7 -3 18 0 25 5 7 5 27 13 45 17 27 5 32 4
32 -12 0 -11 -3 -14 -8 -6 -4 6 -19 9 -34 6 -31 -6 -28 -23 3 -23 11 0 18 -4
14 -9 -3 -6 -18 -6 -38 0 -40 11 -37 12 -37 -5 0 -8 12 -24 28 -35 24 -18 25
-21 7 -22 -50 -3 -73 -6 -88 -12 -11 -4 -17 2 -22 24 -14 61 -99 80 -178 39
-122 -63 -156 -171 -65 -203 15 -5 15 -11 1 -72 -20 -88 -15 -100 40 -90 23 4
61 9 83 10 25 2 55 12 73 26 24 18 34 20 43 11 16 -16 40 -15 73 2 15 8 34 12
41 9 7 -3 45 0 83 7 69 12 71 12 81 48 6 21 13 54 16 75 8 48 28 43 32 -9 2
-21 11 -47 20 -58 10 -10 17 -36 18 -58 1 -99 126 -84 164 19 20 54 24 57 67
55 19 -2 49 2 67 7 17 5 51 12 75 14 41 4 59 17 62 45 1 6 2 15 3 20 2 4 6 28
10 55 9 52 15 60 36 47 12 -7 11 -12 -4 -29 -23 -25 -15 -86 14 -101 47 -25
130 1 155 50 13 26 15 49 10 123 -4 51 -10 96 -14 100 -12 12 -99 -13 -105
-30 -5 -12 -9 -13 -21 -3 -8 6 -19 9 -24 6 -6 -4 -34 -9 -63 -12 -29 -3 -57
-9 -63 -12 -13 -8 -48 -2 -56 9 -3 6 -27 0 -55 -12 -82 -37 -94 -31 -15 6 41
20 77 38 80 40 10 10 -19 28 -56 36 -37 7 -36 8 12 6 41 -2 50 1 53 17 3 12
-7 27 -25 41 l-28 23 -25 -25 c-14 -13 -45 -33 -70 -44 l-45 -19 24 20 c13 11
29 20 36 20 22 0 74 67 68 89 -7 26 -37 57 -76 78 -37 20 -182 26 -260 11z
m300 -254 c-3 -4 -30 -8 -59 -9 -35 -2 -46 0 -33 5 24 10 101 13 92 4z m-181
-29 c10 -8 28 -15 39 -16 18 -1 18 -2 2 -6 -10 -3 -28 2 -41 10 -21 14 -26 14
-55 -4 -35 -21 -66 -25 -76 -9 -4 6 -16 8 -28 5 -19 -5 -19 -4 -5 5 12 7 24 7
42 -1 21 -10 30 -8 58 9 40 26 39 26 64 7z m-178 -47 c-2 -7 13 -16 32 -20 25
-5 20 -6 -20 -3 -30 3 -61 5 -68 5 -7 0 -10 5 -7 11 4 6 13 8 21 5 7 -3 16 -1
19 4 9 14 25 12 23 -2z"/>
</g>
</svg>
